<?xml version="1.0" encoding="UTF-8"?>
<svg id="Layer_2" data-name="Layer 2" xmlns="http://www.w3.org/2000/svg" viewBox="0 0 204.85 166.92">
  <defs>
    <style>
      .cls-1 {
        fill: #100051;
      }
    </style>
  </defs>
  <g id="Layer_1-2" data-name="Layer 1">
    <path class="cls-1" d="M.38,72.13c16.91,0,33.51-.07,50.1.16,1.1.02,2.88,2.2,3.16,3.61,3.11,15.56,10.42,28.1,25.32,34.92,34.94,16.01,71.12-6.33,72.29-44.62.35-11.38.05-22.78.05-34.56,17.92,0,35.55-31.65,53.33-31.65,0,13.58.58,58.72-.13,72.14-1.24,23.64-9.36,44.78-25.42,62.5-17.09,18.87-38.82,28.69-63.78,31.42-26.88,2.94-52.37-1.44-74.91-17.26C14.62,130.7,2.54,104.93,0,74.14c-.04-.45.16-.92.37-2"/>
  </g>
</svg>